<svg width="700" height="700" viewBox="0 0 700 700" fill="none" xmlns="http://www.w3.org/2000/svg">
<g clip-path="url(#clip0_392_122)">
<path d="M350 700C543.3 700 700 543.3 700 350C700 156.7 543.3 0 350 0C156.7 0 0 156.7 0 350C0 543.3 156.7 700 350 700Z" fill="#1E1E1E"/>
<path opacity="0.2" d="M317.188 276.719C312.812 224.219 258.125 199.063 255.937 197.969C252.656 196.875 250.469 196.875 248.281 196.875C184.844 207.812 176.094 243.906 175 246.094V252.656C250.469 486.719 406.875 529.375 458.281 543.594C462.656 544.687 465.937 545.781 468.125 546.875C469.219 546.875 470.312 547.969 471.406 547.969C473.594 547.969 474.687 547.969 476.875 546.875C477.969 545.781 515.156 528.281 525 471.406C525 469.219 525 465.937 523.906 463.75C522.813 462.656 503.125 425.469 449.531 412.344C446.25 411.25 441.875 412.344 438.594 414.531C421.094 428.75 398.125 444.062 388.281 446.25C320.469 413.437 282.188 348.906 281.094 336.875C280 330.312 295.313 306.25 313.906 286.562C316.094 284.375 317.188 280 317.188 276.719Z" fill="#231F20"/>
<path d="M317.188 254.844C312.812 202.344 258.125 177.188 255.937 176.094C252.656 175 250.469 175 248.281 175C184.844 185.937 176.094 222.031 175 224.219V230.781C250.469 464.844 406.875 507.5 458.281 521.719C462.656 522.812 465.937 523.906 468.125 525C469.219 525 470.312 526.094 471.406 526.094C473.594 526.094 474.687 526.094 476.875 525C477.969 523.906 515.156 506.406 525 449.531C525 447.344 525 444.062 523.906 441.875C522.813 440.781 503.125 403.594 449.531 390.469C446.25 389.375 441.875 390.469 438.594 392.656C421.094 406.875 398.125 422.187 388.281 424.375C320.469 391.562 282.188 327.031 281.094 315C280 308.437 295.313 284.375 313.906 264.687C316.094 262.5 317.188 258.125 317.188 254.844Z" fill="#E60028"/>
</g>
<defs>
<clipPath id="clip0_392_122">
<rect width="700" height="700" fill="white"/>
</clipPath>
</defs>
</svg>
