<svg width="580" height="508" viewBox="0 0 580 508" fill="none" xmlns="http://www.w3.org/2000/svg">
    <path fillRule="evenodd" fillRule="evenodd"
        d="M290.003 16.2336C274.855 16.2336 260.047 20.9457 247.452 29.774C234.857 38.6023 225.04 51.1503 219.243 65.8313C213.446 80.5122 211.929 96.6667 214.884 112.252C217.84 127.837 225.134 142.153 235.846 153.389C246.557 164.626 260.204 172.278 275.061 175.378C289.919 178.478 305.318 176.887 319.314 170.806C333.309 164.725 345.271 154.427 353.687 141.214C362.102 128.002 366.594 112.468 366.594 96.5776C366.594 75.269 358.525 54.8332 344.161 39.7658C329.798 24.6984 310.317 16.2336 290.003 16.2336ZM82.8374 265.243L99.7216 308.582H100.108C100.044 272.893 111.558 238.243 132.756 210.329C153.954 182.415 183.576 162.897 216.751 154.985C206.374 140.67 200.014 123.6 198.389 105.697C196.765 87.7948 199.939 69.7721 207.555 53.6605C215.17 37.5489 226.925 23.989 241.493 14.5091C256.061 5.02914 272.863 0.00610352 290.007 0.00610352C307.15 0.00610352 323.953 5.02914 338.521 14.5091C353.089 23.989 364.843 37.5489 372.459 53.6605C380.074 69.7721 383.249 87.7948 381.624 105.697C379.999 123.6 373.64 140.67 363.263 154.985C396.302 162.861 425.821 182.25 447.005 209.987C468.188 237.725 479.786 272.175 479.905 307.716V308.582H480.292L497.17 265.243C497.763 263.777 498.754 262.527 500.02 261.649C501.285 260.77 502.77 260.302 504.287 260.302C505.805 260.302 507.289 260.77 508.555 261.649C509.821 262.527 510.812 263.777 511.405 265.243L528.283 308.582L572.826 312.036C574.373 312.166 575.846 312.78 577.056 313.8C578.265 314.819 579.154 316.197 579.607 317.753C580.06 319.31 580.057 320.973 579.597 322.528C579.137 324.082 578.242 325.455 577.028 326.469L543.15 356.531L553.789 402.047C554.132 403.617 554.022 405.258 553.472 406.762C552.923 408.265 551.959 409.563 550.704 410.49C549.449 411.418 547.96 411.932 546.425 411.968C544.89 412.004 543.38 411.561 542.087 410.693L504.291 386.134L466.308 410.808C465.006 411.629 463.502 412.029 461.985 411.959C460.468 411.889 459.003 411.352 457.775 410.415C456.547 409.478 455.609 408.182 455.078 406.689C454.548 405.196 454.448 403.572 454.792 402.02L456.725 393.712L385.444 394.178L353.461 422.571L373.67 509.033C374.011 510.602 373.9 512.242 373.35 513.744C372.8 515.247 371.836 516.544 370.581 517.47C369.326 518.396 367.837 518.91 366.304 518.946C364.77 518.982 363.26 518.539 361.967 517.672L290.003 470.933L217.827 517.807C216.528 518.647 215.02 519.062 213.495 519C211.97 518.938 210.498 518.402 209.264 517.46C208.03 516.518 207.091 515.213 206.567 513.71C206.042 512.207 205.955 510.574 206.317 509.019L226.52 422.557L195.942 395.422L123.765 395.889L125.196 402.02C125.539 403.59 125.428 405.231 124.879 406.734C124.33 408.238 123.366 409.536 122.111 410.463C120.856 411.391 119.366 411.905 117.831 411.941C116.297 411.977 114.787 411.534 113.493 410.666L75.6971 386.107L37.7142 410.781C36.4123 411.602 34.9088 412.002 33.3914 411.932C31.874 411.862 30.4099 411.325 29.1816 410.388C27.9534 409.451 27.0155 408.155 26.4849 406.662C25.9543 405.169 25.8546 403.545 26.1981 401.993L36.8313 356.477L2.75363 326.266C1.60911 325.219 0.783965 323.841 0.381158 322.305C-0.0216499 320.768 0.0157137 319.142 0.488589 317.628C0.961465 316.114 1.84891 314.779 3.0402 313.791C4.23148 312.802 5.67385 312.204 7.18733 312.07L51.7241 308.615L68.6083 265.276C69.1889 263.798 70.1751 262.533 71.4418 261.644C72.7084 260.754 74.1985 260.279 75.7229 260.279C77.2472 260.279 78.7373 260.754 80.0039 261.644C81.2706 262.533 82.2568 263.798 82.8374 265.276V265.243ZM115.542 309.805V307.777C115.623 274.242 127.113 241.838 147.944 216.398C168.775 190.959 197.578 174.155 229.169 169.012C245.972 184.548 267.602 193.12 290 193.12C312.399 193.12 334.028 184.548 350.832 169.012C382.418 174.153 411.219 190.951 432.05 216.384C452.882 241.816 464.376 274.213 464.465 307.743V309.771L435.742 312.002C434.229 312.136 432.786 312.735 431.595 313.723C430.404 314.712 429.516 316.046 429.043 317.56C428.571 319.074 428.533 320.701 428.936 322.237C429.339 323.773 430.164 325.151 431.308 326.199L465.412 356.464L460.495 377.515L403.746 377.886L418.02 365.225C419.234 364.211 420.129 362.837 420.589 361.282C421.049 359.727 421.052 358.063 420.598 356.506C420.144 354.949 419.254 353.572 418.044 352.553C416.834 351.534 415.359 350.92 413.812 350.792L329.198 344.235L297.092 261.937C296.512 260.458 295.525 259.194 294.259 258.304C292.992 257.415 291.502 256.94 289.978 256.94C288.453 256.94 286.963 257.415 285.697 258.304C284.43 259.194 283.444 260.458 282.863 261.937L250.803 344.302L166.182 350.859C164.669 350.995 163.227 351.594 162.037 352.583C160.847 353.572 159.96 354.906 159.488 356.42C159.016 357.934 158.979 359.56 159.382 361.096C159.785 362.631 160.61 364.009 161.755 365.056L177.917 379.401L120.028 379.779L114.589 356.497L148.467 326.462C149.681 325.448 150.576 324.074 151.035 322.519C151.495 320.964 151.498 319.3 151.044 317.744C150.59 316.187 149.7 314.809 148.49 313.79C147.28 312.771 145.805 312.158 144.258 312.029L115.542 309.805ZM87.3033 319.317L75.7035 289.572L64.3615 318.681C63.9006 320.233 63.0038 321.603 61.7884 322.611C60.573 323.62 59.0957 324.22 57.5498 324.333L27.081 326.699L50.4417 347.419C51.5319 348.385 52.344 349.651 52.7868 351.074C53.2296 352.497 53.2856 354.022 52.9486 355.477L45.6536 386.695L71.5405 369.869C72.7619 369.04 74.1822 368.592 75.6366 368.577C77.091 368.561 78.5198 368.979 79.757 369.781L105.786 386.681L98.6067 355.909C98.179 354.403 98.1779 352.798 98.6035 351.291C99.0291 349.783 99.8631 348.438 101.004 347.419L124.345 326.706L93.8765 324.34C92.4453 324.228 91.0719 323.701 89.9099 322.818C88.7478 321.934 87.8431 320.729 87.2969 319.337L87.3033 319.317ZM515.852 319.317L504.252 289.572L492.91 318.681C492.444 320.231 491.545 321.599 490.329 322.607C489.113 323.614 487.637 324.216 486.092 324.333L455.623 326.699L479.003 347.419C480.092 348.386 480.903 349.652 481.346 351.075C481.789 352.498 481.845 354.022 481.51 355.477L474.208 386.695L500.089 369.869C501.309 369.04 502.728 368.592 504.182 368.577C505.635 368.561 507.063 368.979 508.299 369.781L534.334 386.681L527.155 355.909C526.728 354.402 526.728 352.797 527.155 351.289C527.582 349.782 528.417 348.437 529.559 347.419L552.932 326.706L522.464 324.34C521.032 324.232 519.658 323.706 518.497 322.822C517.335 321.938 516.432 320.731 515.89 319.337L515.852 319.317ZM316.786 355.03L290.003 286.273L263.459 354.409C262.994 355.958 262.096 357.324 260.881 358.332C259.667 359.34 258.192 359.942 256.648 360.06L186.095 365.529L240.124 413.472C241.215 414.437 242.028 415.703 242.47 417.127C242.913 418.55 242.969 420.075 242.631 421.53L225.766 493.694L285.828 454.668C287.049 453.839 288.469 453.391 289.924 453.376C291.378 453.36 292.807 453.778 294.044 454.58L354.241 493.694L337.485 421.962C337.053 420.455 337.05 418.849 337.477 417.34C337.904 415.831 338.742 414.487 339.889 413.472L393.912 365.529L323.359 360.06C321.925 359.951 320.548 359.422 319.386 358.533C318.224 357.644 317.323 356.43 316.786 355.03Z"
        fill="white" />
</svg>