<svg width="344" height="454" viewBox="0 0 344 454" fill="none" xmlns="http://www.w3.org/2000/svg">
<path d="M157.73 71.0899L152.16 88.2299L166.77 77.6199C169.88 75.3399 174.09 75.3399 177.24 77.6099L191.85 88.2299L186.27 71.0599C185.08 67.3499 186.4 63.3499 189.52 61.0799L204.11 50.4799H186.06C182.2 50.4799 178.79 48.0199 177.59 44.3499L172 27.1499L166.42 44.3099C165.2 48.0099 161.8 50.4699 157.94 50.4699H139.88L154.49 61.0799C157.65 63.3899 158.94 67.3999 157.73 71.0899Z" fill="white"/>
<path d="M61.7601 89.76L60.3801 94.01L64.0101 91.37C66.5601 89.53 71.3001 89.52 73.8301 91.38L77.4501 94.01L76.0601 89.74C75.0901 86.76 76.5601 82.25 79.1001 80.41L82.7301 77.77H78.2401C75.1001 77.77 71.2601 74.98 70.2901 71.99L68.9101 67.74L67.5201 72C66.5501 74.99 62.7201 77.77 59.5701 77.77H55.0801L58.7101 80.41C61.2801 82.25 62.7401 86.78 61.7601 89.76Z" fill="white"/>
<path d="M267.93 89.76L266.55 94.01L270.18 91.37C272.73 89.53 277.47 89.52 280 91.38L283.63 94.01L282.24 89.74C281.28 86.78 282.71 82.3 285.21 80.44L288.9 77.77H284.41C281.23 77.77 277.37 74.93 276.44 71.89L275.09 67.73L273.7 72C272.73 74.99 268.9 77.77 265.75 77.77H261.26L264.89 80.41C267.45 82.25 268.92 86.78 267.93 89.76Z" fill="white"/>
<path d="M323.49 312.73C319.77 307.83 315.13 301.74 316.56 293.84C317.48 288.76 319.16 284.26 320.66 280.29C324.24 270.75 325.72 266.8 318.42 260.27C309.91 252.65 298.11 252.43 284.75 252.93C273.04 253.38 262.35 254.1 252.06 255.18L250.02 255.4C238.11 256.74 215.92 259.16 208.95 242.99C204.95 233.73 207.44 223.66 209.63 214.78C210.61 210.81 211.54 207.05 211.77 203.89C212.41 194.75 211.76 185.03 209.82 174.98C207.07 160.72 199.69 136.49 181.25 134.41C176.33 133.86 171.15 135.03 168.85 137.18C168.14 137.85 167.42 138.81 167.53 140.86C167.73 144.78 168.02 148.71 168.32 152.64C169.61 169.77 170.94 187.49 164.46 204.94C159.35 218.7 151.03 230.8 142.98 242.51C140.38 246.29 137.81 250.02 135.4 253.75L106 299.33L105.05 417.55C107.54 418.97 110.03 420.4 112.55 421.89C120.18 426.42 128.06 431.1 135.94 433.79C158.53 441.53 185.61 439.44 211.78 437.41C223.38 436.51 235.39 435.58 246.61 435.58C249.53 435.58 253.12 435.88 256.96 436.22C263.43 436.79 272.32 437.58 276.37 436.04C284.3 433.05 289.06 425.3 290.54 413.02C292.08 400.38 294.1 397.59 301.43 392.05C302.7 391.09 304.2 389.96 306.02 388.46C313.08 382.62 312.98 374.84 312.22 362.62L312.01 359.23C311.56 351.03 317.24 345.53 321.8 341.11C323.97 339.02 326.21 336.84 327.04 335.07C329.28 330.32 329.67 325.34 328.2 320.27C327.49 318 325.55 315.44 323.49 312.73Z" fill="white"/>
<path d="M17.27 414.61L90.55 415.2L91.44 304.11L48.42 303.77L17.27 414.61Z" fill="white"/>
<path d="M342.07 316.28C340.65 311.38 337.66 307.44 335.02 303.97C332.91 301.2 330.52 298.05 330.82 296.42C331.5 292.63 332.89 288.95 334.22 285.4C338.03 275.25 342.77 262.64 328.09 249.49C314.54 237.35 296.3 238.01 284.21 238.47C272.17 238.92 261.17 239.68 250.56 240.78L248.42 241.01C240.81 241.85 224.98 243.6 222.25 237.27C220.19 232.48 221.97 225.25 223.69 218.26C224.78 213.87 225.9 209.33 226.21 204.92C226.95 194.52 226.21 183.52 224.03 172.24C217.98 140.87 203.35 122.32 182.85 120.01C175.52 119.17 165.44 120.5 158.91 126.63C154.78 130.51 152.75 135.69 153.04 141.59C153.25 145.63 153.55 149.68 153.85 153.73C155.07 170.03 156.23 185.42 150.85 199.91C146.37 211.98 138.57 223.33 131.02 234.31C128.35 238.21 125.69 242.07 123.22 245.91L95 289.64L43 289.23C39.7 289.46 36.84 291.37 35.97 294.52L0.760043 419.82C0.150043 421.99 0.590044 424.33 1.94004 426.13C3.30004 427.93 5.42004 429 7.68004 429.02L97.13 429.74C99.79 431.23 102.45 432.78 105.13 434.37C113.39 439.27 121.93 444.34 131.21 447.52C145.24 452.32 160.24 453.8 175.52 453.8C187.91 453.8 200.48 452.83 212.87 451.87C224.72 450.95 235.92 450.09 246.59 450.09C249.14 450.09 252.3 450.38 255.67 450.68C264.42 451.45 274.33 452.33 281.48 449.63C294.67 444.65 302.77 432.6 304.92 414.79C305.88 406.89 305.88 406.89 310.16 403.64C311.56 402.58 313.23 401.32 315.23 399.66C328.34 388.83 327.41 373.82 326.66 361.75L326.46 358.47C326.38 356.86 329.42 353.91 331.86 351.54C334.82 348.68 338.16 345.44 340.12 341.28C343.84 333.36 344.52 324.71 342.07 316.28ZM90.55 415.2L17.27 414.61L48.42 303.77L91.45 304.12L90.55 415.2ZM327 335.11C326.17 336.88 323.92 339.05 321.76 341.15C317.2 345.57 311.53 351.07 311.97 359.27L312.18 362.66C312.94 374.88 313.04 382.66 305.98 388.5C304.17 389.99 302.66 391.13 301.39 392.09C294.06 397.64 292.04 400.43 290.5 413.06C289.03 425.34 284.26 433.08 276.33 436.08C272.28 437.62 263.4 436.83 256.92 436.26C253.08 435.92 249.48 435.62 246.57 435.62C235.34 435.62 223.34 436.55 211.74 437.45C185.57 439.49 158.49 441.58 135.9 433.83C128.02 431.13 120.14 426.46 112.51 421.93C110 420.44 107.51 419.01 105.01 417.59L105.96 299.37L135.36 253.79C137.77 250.06 140.34 246.32 142.94 242.55C150.99 230.84 159.31 218.74 164.42 204.98C170.9 187.53 169.57 169.81 168.28 152.68C167.98 148.75 167.69 144.82 167.49 140.9C167.38 138.85 168.1 137.89 168.81 137.22C171.1 135.06 176.29 133.89 181.21 134.45C199.66 136.52 207.03 160.76 209.78 175.02C211.72 185.06 212.37 194.79 211.73 203.93C211.5 207.09 210.58 210.85 209.59 214.82C207.4 223.7 204.91 233.77 208.91 243.03C215.88 259.21 238.07 256.78 249.98 255.44L252.02 255.22C262.31 254.14 273 253.42 284.71 252.97C298.08 252.47 309.88 252.69 318.38 260.31C325.68 266.84 324.2 270.79 320.62 280.33C319.13 284.3 317.44 288.8 316.52 293.88C315.1 301.78 319.73 307.87 323.45 312.77C325.51 315.48 327.45 318.03 328.13 320.35C329.63 325.38 329.24 330.36 327 335.11Z" fill="white"/>
<path d="M341.59 316.42L341.59 316.419C340.2 311.622 337.269 307.752 334.622 304.273C333.571 302.893 332.43 301.392 331.591 300.03C331.171 299.348 330.816 298.685 330.585 298.075C330.359 297.476 330.229 296.871 330.328 296.331M341.59 316.42L131.02 234.31C138.57 223.33 146.37 211.98 150.85 199.91C156.223 185.438 155.073 170.069 153.855 153.791L153.85 153.73L154.349 153.693M341.59 316.42C344.006 324.733 343.336 333.258 339.667 341.067L341.59 316.42ZM330.328 296.331C331.006 292.552 332.379 288.889 333.686 285.4L333.752 285.225L333.752 285.224C335.662 280.135 337.759 274.536 337.589 268.584C337.42 262.671 335.006 256.356 327.756 249.862C314.378 237.876 296.348 238.509 284.229 238.97C272.199 239.419 261.21 240.179 250.612 241.277C250.612 241.277 250.612 241.277 250.612 241.277L248.475 241.507L248.473 241.507L248.452 241.51C244.653 241.929 238.767 242.579 233.481 242.328C230.835 242.203 228.306 241.851 226.252 241.114C224.201 240.378 222.551 239.231 221.791 237.468L221.791 237.468C220.708 234.95 220.65 231.837 221.056 228.529C221.462 225.221 222.342 221.645 223.199 218.165L223.205 218.141L223.205 218.14C224.297 213.742 225.405 209.244 225.711 204.885L225.711 204.885C226.448 194.533 225.712 183.577 223.539 172.335L223.539 172.335C217.503 141.039 202.962 122.779 182.794 120.507L182.793 120.507C175.537 119.675 165.632 121.006 159.252 126.995C155.235 130.769 153.257 135.804 153.539 141.564C153.749 145.598 154.049 149.642 154.349 153.693L154.349 153.693M330.328 296.331C330.328 296.331 330.328 296.331 330.328 296.332L330.82 296.42L330.328 296.33C330.328 296.33 330.328 296.33 330.328 296.331ZM154.349 153.693L154.358 153.812C155.573 170.046 156.73 185.51 151.319 200.084C146.813 212.222 138.975 223.624 131.433 234.592M154.349 153.693L131.433 234.592M131.433 234.592C131.193 234.943 130.953 235.292 130.714 235.642C128.286 239.186 125.885 242.692 123.641 246.181L123.64 246.181L95.4202 289.911L95.2711 290.142L94.9961 290.14L43.0158 289.73M131.433 234.592L123.22 245.91L95 289.64L43 289.23M43.0158 289.73C43.0221 289.73 43.0285 289.729 43.0348 289.729L43 289.23M43.0158 289.73L42.9961 289.73L43 289.23M43.0158 289.73C39.8881 289.955 37.2522 291.756 36.452 294.653L36.4514 294.655L1.2414 419.955L0.760059 419.82L1.24139 419.955C0.673755 421.975 1.08303 424.153 2.33898 425.829C3.60559 427.505 5.57995 428.501 7.68447 428.52L97.1341 429.24L97.2624 429.241L97.3744 429.304C100.039 430.796 102.703 432.349 105.385 433.94L105.405 433.952C113.666 438.853 122.156 443.889 131.372 447.047C131.372 447.047 131.372 447.047 131.372 447.047L131.21 447.52C145.24 452.32 160.24 453.8 175.52 453.8C187.91 453.8 200.48 452.83 212.87 451.87C224.72 450.95 235.92 450.09 246.59 450.09C249.049 450.09 252.075 450.36 255.31 450.648L35.97 294.52C36.84 291.37 39.7 289.46 43 289.23M322.109 341.508L322.108 341.509C317.521 345.955 312.045 351.301 312.469 359.239L322.109 341.508ZM322.109 341.508L322.226 341.394C323.266 340.383 324.334 339.345 325.248 338.343C326.191 337.31 327.004 336.279 327.452 335.323M322.109 341.508L312.469 359.243L312.679 362.629C313.436 374.801 313.583 382.859 306.299 388.885L306.298 388.886C304.5 390.366 302.997 391.502 301.736 392.455L301.692 392.489C301.692 392.489 301.692 392.489 301.692 392.489C298.034 395.258 295.772 397.289 294.213 400.159C292.648 403.04 291.765 406.813 290.996 413.121C289.515 425.49 284.685 433.454 276.507 436.548C274.381 437.356 271.058 437.537 267.526 437.461C264.005 437.385 260.189 437.05 256.973 436.767L256.876 436.758L256.876 436.758C253.031 436.418 249.454 436.12 246.57 436.12C235.363 436.12 223.383 437.048 211.779 437.949C185.637 439.986 158.445 442.093 135.738 434.303C127.8 431.583 119.875 426.884 112.255 422.36C109.749 420.872 107.262 419.444 104.763 418.025L104.508 417.88L104.51 417.586L105.46 299.366L105.461 299.221L105.54 299.099L134.94 253.519L134.94 253.519C137.355 249.782 139.928 246.036 142.528 242.267C150.584 230.548 158.866 218.498 163.951 204.806C170.387 187.474 169.073 169.864 167.781 152.718C167.482 148.788 167.191 144.853 166.991 140.927C166.991 140.926 166.991 140.926 166.991 140.925L167.49 140.9C167.38 138.85 168.1 137.89 168.81 137.22L168.467 136.856C169.704 135.689 171.673 134.829 173.915 134.327C176.168 133.822 178.751 133.667 181.267 133.953C190.724 135.015 197.293 141.758 201.82 149.921C206.35 158.09 208.892 167.774 210.271 174.925C212.218 185.003 212.872 194.777 212.229 203.965L212.229 203.966C211.995 207.177 211.063 210.982 210.076 214.94C207.877 223.854 205.447 233.752 209.369 242.832L209.369 242.832C212.758 250.7 219.849 254.077 227.67 255.311C235.501 256.546 243.96 255.614 249.924 254.943L249.926 254.943L251.966 254.723L251.968 254.723C262.271 253.641 272.972 252.921 284.691 252.47L284.691 252.47C298.031 251.971 310.042 252.164 318.714 259.938C322.413 263.247 323.979 265.985 324.08 269.175C324.178 272.272 322.882 275.726 321.125 280.409L321.088 280.506C319.597 284.479 317.923 288.939 317.012 293.968C315.636 301.622 320.107 307.539 323.848 312.467C323.848 312.467 323.848 312.468 323.848 312.468L323.863 312.488C324.886 313.832 325.891 315.155 326.726 316.433C327.564 317.715 328.25 318.98 328.61 320.209C330.145 325.358 329.744 330.464 327.452 335.323M327.452 335.323L327 335.11M327.452 335.323C327.452 335.323 327.453 335.323 327.453 335.322L327 335.11M327 335.11C329.24 330.36 329.63 325.38 328.13 320.35L321.874 341.04C323.998 338.974 326.185 336.849 327 335.11ZM255.714 450.182L255.714 450.182L255.714 450.182ZM90.546 415.7L91.046 415.704L91.05 415.204L91.95 304.124L91.9541 303.624L91.4541 303.62L48.4241 303.27L48.0421 303.267L47.9387 303.635L16.7887 414.475L16.6116 415.105L17.266 415.11L90.546 415.7Z" stroke="#F1F4F4" stroke-opacity="0.65"/>
<path d="M142.7 70.4299L133.06 100.09C131.88 103.77 133.18 107.77 136.31 110.04C139.44 112.33 143.65 112.31 146.78 110.04L172 91.72L197.22 110.05C198.79 111.19 200.62 111.76 202.45 111.76C204.3 111.76 206.14 111.19 207.71 110.04C210.84 107.75 212.13 103.75 210.94 100.08L201.31 70.44L226.54 52.11C229.67 49.83 230.96 45.8199 229.76 42.1399C228.56 38.4599 225.16 35.9899 221.29 35.9899H190.12L180.49 6.35995C179.29 2.67995 175.9 0.199951 172.03 0.199951C172.02 0.199951 172.02 0.199951 172.01 0.199951C168.15 0.199951 164.74 2.66995 163.53 6.35995L153.9 35.9899H122.74C118.87 35.9899 115.46 38.4599 114.26 42.1399C113.06 45.8199 114.35 49.83 117.49 52.12L142.7 70.4299ZM157.95 50.48C161.81 50.48 165.21 48.02 166.43 44.32L172 27.15L177.59 44.3399C178.79 48.0099 182.2 50.47 186.06 50.47H204.11L189.52 61.07C186.39 63.33 185.08 67.33 186.27 71.05L191.85 88.22L177.24 77.5999C174.09 75.3399 169.88 75.34 166.77 77.61L152.16 88.22L157.73 71.08C158.95 67.39 157.66 63.38 154.51 61.07L139.9 50.4599H157.95V50.48Z" fill="white"/>
<path d="M252.78 89.51L246.94 107.5C245.81 110.96 247.05 114.72 249.99 116.85C252.52 118.69 257.25 118.68 259.8 116.84L275.11 105.72L290.37 116.8C291.85 117.89 293.58 118.43 295.32 118.43C297.03 118.43 298.74 117.91 300.2 116.85C302.75 115.01 304.23 110.48 303.26 107.49L297.42 89.5L312.71 78.39C315.65 76.26 316.88 72.5 315.76 69.05C314.8 66.06 310.96 63.27 307.81 63.27H288.9L283.06 45.28C283.06 45.27 283.06 45.27 283.05 45.27C281.93 41.82 278.73 39.51 275.11 39.51C271.97 39.51 268.13 42.3 267.16 45.28L261.32 63.27H242.4C238.78 63.27 235.59 65.58 234.46 69.04C233.48 72.03 234.95 76.53 237.49 78.38L252.78 89.51ZM265.76 77.77C268.9 77.77 272.74 74.98 273.71 72L275.1 67.73L276.45 71.89C277.38 74.93 281.24 77.77 284.42 77.77H288.91L285.22 80.44C282.72 82.29 281.29 86.78 282.25 89.74L283.64 94.01L280.01 91.38C277.48 89.53 272.74 89.53 270.19 91.37L266.56 94.01L267.94 89.76C268.92 86.77 267.46 82.25 264.91 80.41L261.28 77.77H265.76Z" fill="white"/>
<path d="M46.6 89.51L40.76 107.5C39.63 110.96 40.87 114.72 43.81 116.85C46.34 118.69 51.07 118.68 53.62 116.84L68.93 105.72L84.19 116.8C85.67 117.89 87.4 118.43 89.14 118.43C90.85 118.43 92.56 117.91 94.02 116.85C96.57 115.01 98.05 110.48 97.08 107.49L91.24 89.5L106.53 78.39C109.47 76.26 110.7 72.5 109.58 69.05C108.62 66.06 104.78 63.27 101.63 63.27H82.71L76.87 45.28C76.87 45.27 76.87 45.27 76.86 45.27C75.74 41.82 72.54 39.51 68.92 39.51C65.78 39.51 61.94 42.3 60.97 45.28L55.13 63.27H36.21C32.59 63.27 29.4 65.58 28.27 69.04C27.29 72.03 28.76 76.53 31.3 78.38L46.6 89.51ZM59.59 77.77C62.73 77.77 66.57 74.98 67.54 72L68.93 67.74L70.31 71.99C71.27 74.98 75.11 77.77 78.26 77.77H82.75L79.12 80.41C76.58 82.26 75.12 86.76 76.08 89.74L77.47 94.01L73.85 91.38C71.32 89.53 66.58 89.53 64.03 91.37L60.4 94.01L61.78 89.76C62.76 86.77 61.3 82.25 58.75 80.41L55.12 77.77H59.59Z" fill="white"/>
</svg>
