<svg width="201" height="246" viewBox="0 0 201 246" fill="none" xmlns="http://www.w3.org/2000/svg">
<path d="M71.5471 151.071H148.615C150.523 151.071 152.04 152.709 152.04 154.769V156.882L166.231 146.053L152.04 135.277V137.39C152.04 139.45 150.523 141.088 148.615 141.088H79.2784C71.7918 141.088 61.4182 141.774 53.1976 127.09V131.21C53.1487 142.144 61.4182 151.071 71.5471 151.071ZM145.19 158.466H71.5471C57.6504 158.466 46.2982 146.211 46.2982 131.21V108.074C46.2982 103.795 51.9743 102.95 53.0019 107.123C59.6077 133.851 70.9599 133.745 78.0061 133.693C79.1805 133.693 78.104 133.693 79.1805 133.693H145.141V128.146C145.141 125.188 148.273 123.392 150.523 125.135L174.011 142.989C175.968 144.416 176.066 147.532 174.06 149.064L150.719 166.865C148.273 168.872 145.141 166.918 145.141 164.012V158.466H145.19ZM137.752 194.913L137.899 194.491C140.346 184.032 121.751 177.746 114.167 174.524C109.225 172.464 104.576 170.457 99.4873 170.879C80.257 172.411 83.2908 183.398 61.9075 183.398C50.8978 183.398 46.2982 182.183 37.784 181.127V229.882C68.758 223.12 79.3273 224.599 96.5514 227.082C105.408 228.35 116.124 229.882 132.565 230.568C135.501 230.674 192.165 198.294 193.779 185.722C194.122 182.87 192.801 179.278 189.816 178.855C188.593 178.644 187.027 179.014 185.118 180.07C172.543 187.096 160.261 195.019 143.624 198.664C137.361 211.394 115.341 202.15 102.668 196.181C100.955 195.389 100.172 193.223 100.906 191.322C101.64 189.473 103.695 188.575 105.408 189.42C115.733 194.28 123.758 196.973 129.483 197.555C134.033 198.03 136.774 197.132 137.752 194.913ZM3.82515 166.706H34.4077C36.316 166.706 37.8329 168.344 37.8329 170.404V173.732C46.4939 174.788 50.9956 176.056 61.9564 176.056C80.7953 176.056 77.5658 165.28 99.0469 163.59C106.974 162.956 113.188 166.389 120.186 169.189C129.483 172.887 143.771 179.278 144.945 190.846C159.331 187.096 170.537 179.912 181.987 173.52C193.437 167.129 201.804 176.743 200.532 186.779C198.134 205.689 135.452 238.175 132.321 238.016C115.586 237.277 104.723 235.745 95.7195 234.477C78.9848 232.1 68.8069 230.621 37.8329 237.541V241.502C37.8329 243.563 36.316 245.2 34.4077 245.2H3.82515C1.9168 245.2 0.399902 243.563 0.399902 241.502V170.404C0.399902 168.344 1.9168 166.706 3.82515 166.706ZM30.9824 174.102H7.25039V237.699H30.9824V174.102ZM113.286 88.6882V92.2801C113.286 94.3402 111.769 95.9777 109.861 95.9777C107.953 95.9777 106.436 94.3402 106.436 92.2801V88.6882C98.998 87.6846 90.8263 82.8778 90.8263 74.6376C90.8263 72.5775 92.3432 70.94 94.2516 70.94C96.1599 70.94 97.6768 72.5775 97.6768 74.6376C97.6768 76.2222 98.8023 77.7541 100.662 79.0218C105.604 82.4024 114.118 82.4024 119.109 79.0218C120.92 77.7541 122.094 76.2222 122.094 74.6376C122.094 69.7779 115.733 68.7215 109.421 67.7179C100.123 66.2389 90.8753 64.707 90.8753 53.4559C90.8753 45.2157 99.0959 40.4089 106.485 39.4053V35.8134C106.485 33.7533 108.001 32.1158 109.91 32.1158C111.818 32.1158 113.335 33.7533 113.335 35.8134V39.4053C120.773 40.4089 128.944 45.2157 128.944 53.4559C128.944 55.516 127.428 57.1535 125.519 57.1535C123.611 57.1535 122.094 55.516 122.094 53.4559C122.094 51.8713 120.968 50.3394 119.109 49.0717C114.167 45.6911 105.653 45.6911 100.662 49.0717C98.8512 50.3394 97.6768 51.8713 97.6768 53.4559C97.6768 58.3684 104.038 59.372 110.35 60.4284C119.647 61.9075 128.895 63.4393 128.895 74.6904C128.895 82.825 120.724 87.6846 113.286 88.6882ZM109.861 110.398C86.1289 110.398 66.8986 89.639 66.8986 64.0203C66.8986 38.4016 86.1289 17.6426 109.861 17.6426C133.593 17.6426 152.823 38.4016 152.823 64.0203C152.872 89.639 133.593 110.398 109.861 110.398ZM84.3184 91.5934C98.4108 106.806 121.311 106.806 135.403 91.5934C149.496 76.3807 149.496 51.66 135.403 36.4472C121.311 21.2345 98.4108 21.2345 84.3184 36.4472C70.2259 51.66 70.2259 76.3279 84.3184 91.5934ZM109.861 128.041C77.1254 128.041 50.5553 99.3583 50.5553 64.0203C50.6042 28.6824 77.1254 0 109.861 0C142.596 0 169.167 28.6824 169.167 64.0203C169.167 99.3583 142.596 128.041 109.861 128.041ZM72.7704 104.059C93.224 126.139 126.449 126.139 146.951 104.059C167.454 81.927 167.454 46.1137 146.951 23.9812C126.498 1.9016 93.2729 1.9016 72.7704 23.9812C52.3168 46.0608 52.3168 81.927 72.7704 104.059Z" fill="white"/>
</svg>
