<svg width="439" height="423" viewBox="0 0 439 423" fill="none" xmlns="http://www.w3.org/2000/svg">
<path d="M438.645 286.584L404.357 190.591C403.903 189.317 403.03 188.209 401.863 187.423C400.696 186.638 399.293 186.216 397.854 186.216H41.257C39.8178 186.216 38.415 186.639 37.2474 187.424C36.0797 188.209 35.2063 189.317 34.7509 190.591L0.462771 286.584C0.119142 287.546 0.0254 288.571 0.18927 289.573C0.353139 290.576 0.769931 291.528 1.4053 292.35C2.04067 293.173 2.87643 293.843 3.84371 294.305C4.81099 294.768 5.88211 295.009 6.96882 295.009H41.257V416.6C41.2568 417.441 41.434 418.273 41.7785 419.05C42.1231 419.826 42.6282 420.532 43.265 421.126C43.9019 421.72 44.6579 422.192 45.4901 422.513C46.3222 422.835 47.214 423 48.1146 423H390.996C391.897 423 392.789 422.835 393.621 422.514C394.454 422.192 395.21 421.721 395.847 421.127C396.484 420.532 396.989 419.827 397.333 419.05C397.678 418.273 397.855 417.441 397.854 416.6V295.009H432.142C433.229 295.01 434.301 294.769 435.269 294.307C436.237 293.846 437.073 293.175 437.708 292.352C438.343 291.529 438.76 290.577 438.923 289.574C439.086 288.571 438.99 287.546 438.645 286.584ZM46.1993 199.015H258.043L228.329 282.21H16.4818L46.1993 199.015ZM54.9723 295.009H233.271C234.71 295.009 236.112 294.587 237.279 293.802C238.447 293.017 239.319 291.908 239.773 290.634L260.701 232.044V410.201H54.9723V295.009ZM384.139 410.201H274.417V232.044L295.345 290.634C295.799 291.908 296.671 293.017 297.839 293.802C299.006 294.587 300.408 295.009 301.847 295.009H384.139V410.201ZM306.789 282.21L277.075 199.015H392.912L422.626 282.21H306.789Z" fill="white"/>
<path d="M54.9719 179.826C55.8725 179.826 56.7644 179.66 57.5965 179.339C58.4286 179.017 59.1847 178.546 59.8215 177.952C60.4583 177.357 60.9635 176.652 61.308 175.875C61.6525 175.099 61.8298 174.266 61.8295 173.426V160.627H84.8837C86.4277 160.627 87.9265 160.141 89.1375 159.247C90.3486 158.353 91.2011 157.104 91.5571 155.702C93.5774 147.744 96.9581 140.14 101.569 133.185C102.38 131.959 102.724 130.513 102.545 129.081C102.365 127.65 101.674 126.317 100.582 125.298L84.2677 110.074L103.665 91.969L119.979 107.193C121.07 108.213 122.499 108.859 124.033 109.026C125.568 109.193 127.117 108.871 128.43 108.112C135.887 103.814 144.033 100.66 152.559 98.7684C154.062 98.4377 155.401 97.643 156.359 96.5132C157.317 95.3834 157.837 93.9847 157.836 92.544V71.033H185.267V92.544C185.266 93.9848 185.787 95.3835 186.745 96.5134C187.703 97.6432 189.041 98.4379 190.544 98.7686C199.07 100.66 207.217 103.814 214.673 108.112C215.985 108.874 217.536 109.198 219.071 109.031C220.606 108.864 222.035 108.216 223.125 107.193L239.438 91.9692L258.839 110.074L242.526 125.298C241.433 126.317 240.74 127.65 240.562 129.082C240.383 130.513 240.728 131.96 241.541 133.185C246.147 140.143 249.527 147.745 251.553 155.702C251.908 157.105 252.759 158.354 253.97 159.248C255.18 160.142 256.679 160.628 258.223 160.627H281.274V173.426C281.274 175.123 281.996 176.751 283.282 177.951C284.568 179.151 286.313 179.826 288.132 179.826C289.95 179.826 291.695 179.151 292.981 177.951C294.267 176.751 294.989 175.123 294.989 173.426V154.227C294.99 153.387 294.813 152.554 294.468 151.778C294.124 151.001 293.619 150.295 292.982 149.701C292.345 149.107 291.589 148.635 290.756 148.314C289.924 147.992 289.032 147.827 288.132 147.828H263.487C261.606 141.949 259.079 136.267 255.946 130.873L273.385 114.599C274.022 114.005 274.527 113.299 274.872 112.523C275.217 111.746 275.394 110.914 275.394 110.074C275.394 109.234 275.217 108.401 274.872 107.625C274.527 106.849 274.022 106.143 273.385 105.549L244.287 78.3948C243.65 77.8004 242.895 77.3289 242.063 77.0072C241.231 76.6855 240.339 76.5199 239.438 76.5199C238.538 76.5199 237.646 76.6855 236.814 77.0072C235.982 77.3289 235.227 77.8004 234.59 78.3948L217.151 94.6689C211.37 91.7464 205.282 89.3883 198.982 87.6319V64.6334C198.982 63.793 198.805 62.9607 198.461 62.1842C198.116 61.4077 197.611 60.7021 196.974 60.1078C196.337 59.5135 195.581 59.0421 194.749 58.7206C193.917 58.399 193.025 58.2337 192.125 58.2339H150.979C150.078 58.2337 149.186 58.399 148.354 58.7206C147.522 59.0421 146.766 59.5135 146.129 60.1078C145.492 60.7021 144.987 61.4077 144.643 62.1842C144.298 62.9607 144.121 63.793 144.121 64.6334V87.6319C137.822 89.3883 131.733 91.7464 125.952 94.6689L108.514 78.3948C107.203 77.2389 105.468 76.5949 103.665 76.5949C101.862 76.5949 100.127 77.2389 98.8163 78.3948L69.7216 105.549C69.0847 106.143 68.5794 106.849 68.2347 107.625C67.89 108.401 67.7126 109.234 67.7126 110.074C67.7126 110.914 67.89 111.746 68.2347 112.523C68.5794 113.299 69.0847 114.005 69.7216 114.599L87.1606 130.873C84.0264 136.266 81.4993 141.948 79.6199 147.828H54.9719C54.0713 147.828 53.1794 147.993 52.3473 148.314C51.5152 148.636 50.7591 149.107 50.1223 149.702C49.4855 150.296 48.9803 151.001 48.6358 151.778C48.2912 152.555 48.114 153.387 48.1143 154.227V173.426C48.114 174.266 48.2912 175.099 48.6358 175.875C48.9803 176.652 49.4855 177.357 50.1223 177.952C50.7591 178.546 51.5152 179.017 52.3473 179.339C53.1794 179.66 54.0713 179.826 54.9719 179.826Z" fill="white"/>
<path d="M130.406 173.42C130.406 175.117 131.129 176.745 132.415 177.945C133.701 179.145 135.445 179.819 137.264 179.819C139.083 179.819 140.827 179.145 142.113 177.945C143.399 176.745 144.122 175.117 144.122 173.42C144.122 166.631 147.012 160.12 152.156 155.319C157.3 150.519 164.277 147.822 171.552 147.822C178.827 147.822 185.804 150.519 190.948 155.319C196.093 160.12 198.983 166.631 198.983 173.42C198.983 175.117 199.705 176.745 200.991 177.945C202.277 179.145 204.021 179.819 205.84 179.819C207.659 179.819 209.403 179.145 210.689 177.945C211.975 176.745 212.698 175.117 212.698 173.42C212.698 163.236 208.363 153.47 200.647 146.269C192.93 139.068 182.465 135.022 171.552 135.022C160.64 135.022 150.174 139.068 142.458 146.269C134.741 153.47 130.406 163.236 130.406 173.42Z" fill="white"/>
<path d="M322.42 123.243V173.421C322.42 175.118 323.142 176.746 324.428 177.946C325.714 179.146 327.458 179.821 329.277 179.821C331.096 179.821 332.84 179.146 334.126 177.946C335.412 176.746 336.135 175.118 336.135 173.421V118.9C336.134 117.578 335.696 116.289 334.879 115.21C334.063 114.13 332.909 113.312 331.575 112.869C320.893 109.326 311.645 102.79 305.096 94.1552C298.547 85.5201 295.017 75.2075 294.989 64.6285C295.07 55.2359 297.612 46.0044 302.394 37.7387C307.175 29.4731 314.05 22.4243 322.42 17.2068V64.6285C322.42 65.4689 322.597 66.3011 322.942 67.0774C323.286 67.8537 323.792 68.5591 324.429 69.153L345.002 88.3517C345.638 88.9461 346.394 89.4176 347.226 89.7393C348.058 90.061 348.95 90.2266 349.85 90.2266C350.751 90.2266 351.643 90.061 352.475 89.7393C353.307 89.4176 354.062 88.9461 354.699 88.3517L375.272 69.153C375.909 68.559 376.414 67.8537 376.759 67.0774C377.104 66.301 377.281 65.4689 377.281 64.6285V17.2068C385.651 22.4243 392.526 29.4731 397.307 37.7387C402.088 46.0044 404.63 55.2359 404.711 64.6285C404.683 75.2075 401.154 85.5201 394.605 94.1552C388.056 102.79 378.808 109.326 368.126 112.869C366.792 113.312 365.637 114.13 364.821 115.21C364.005 116.289 363.566 117.578 363.566 118.9V173.421C363.566 175.118 364.288 176.746 365.574 177.946C366.86 179.146 368.604 179.821 370.423 179.821C372.242 179.821 373.986 179.146 375.272 177.946C376.558 176.746 377.281 175.118 377.281 173.421V123.243C389.491 118.248 399.881 110.048 407.186 99.6408C414.491 89.2339 418.397 77.0695 418.427 64.6285C418.511 50.9681 414.197 37.5989 406.044 26.2532C397.891 14.9075 386.275 6.10821 372.7 0.995444C371.666 0.655152 370.559 0.551342 369.473 0.692729C368.387 0.834116 367.353 1.21657 366.459 1.80799C365.564 2.39942 364.834 3.18254 364.331 4.09163C363.827 5.00072 363.565 6.00924 363.566 7.03253V61.9787L349.85 74.7779L336.135 61.9787V7.03253C336.136 6.00923 335.873 5.00071 335.37 4.09161C334.867 3.18251 334.137 2.39938 333.242 1.80796C332.347 1.21653 331.313 0.834077 330.227 0.692697C329.141 0.551317 328.035 0.655137 327.001 0.995444C313.426 6.10821 301.81 14.9075 293.657 26.2532C285.503 37.5989 281.19 50.9681 281.274 64.6285C281.304 77.0695 285.209 89.2339 292.515 99.6408C299.82 110.048 310.21 118.248 322.42 123.243Z" fill="white"/>
</svg>
