<svg xmlns="http://www.w3.org/2000/svg" xmlns:xlink="http://www.w3.org/1999/xlink" version="1.1" x="0px" y="0px" viewBox="0 0 512 640" style="enable-background:new 0 0 512 512;" xml:space="preserve"><style type="text/css">
	.st0{fill:none;}
</style><g><path class="st0" d="M241.73,100.09l-5.57,17.14l14.61-10.61c3.11-2.28,7.32-2.28,10.47-0.01l14.61,10.62l-5.58-17.17   c-1.19-3.71,0.13-7.71,3.25-9.98l14.59-10.6h-18.05c-3.86,0-7.27-2.46-8.47-6.13L256,56.15l-5.58,17.16   c-1.22,3.7-4.62,6.16-8.48,6.16h-18.06l14.61,10.61C241.65,92.39,242.94,96.4,241.73,100.09z"/><path class="st0" d="M145.76,118.76l-1.38,4.25l3.63-2.64c2.55-1.84,7.29-1.85,9.82,0.01l3.62,2.63l-1.39-4.27   c-0.97-2.98,0.5-7.49,3.04-9.33l3.63-2.64h-4.49c-3.14,0-6.98-2.79-7.95-5.78l-1.38-4.25l-1.39,4.26c-0.97,2.99-4.8,5.77-7.95,5.77   h-4.49l3.63,2.64C145.28,111.25,146.74,115.78,145.76,118.76z"/><path class="st0" d="M351.93,118.76l-1.38,4.25l3.63-2.64c2.55-1.84,7.29-1.85,9.82,0.01l3.63,2.63l-1.39-4.27   c-0.96-2.96,0.47-7.44,2.97-9.3l3.69-2.67h-4.49c-3.18,0-7.04-2.84-7.97-5.88l-1.35-4.16l-1.39,4.27c-0.97,2.99-4.8,5.77-7.95,5.77   h-4.49l3.63,2.64C351.45,111.25,352.92,115.78,351.93,118.76z"/><path class="st0" d="M407.49,341.73c-3.72-4.9-8.36-10.99-6.93-18.89c0.92-5.08,2.6-9.58,4.1-13.55   c3.58-9.54,5.06-13.49-2.24-20.02c-8.51-7.62-20.31-7.84-33.67-7.34c-11.71,0.45-22.4,1.17-32.69,2.25l-2.04,0.22   c-11.91,1.34-34.1,3.76-41.07-12.41c-4-9.26-1.51-19.33,0.68-28.21c0.98-3.97,1.91-7.73,2.14-10.89   c0.64-9.14-0.01-18.86-1.95-28.91c-2.75-14.26-10.13-38.49-28.57-40.57c-4.92-0.55-10.1,0.62-12.4,2.77   c-0.71,0.67-1.43,1.63-1.32,3.68c0.2,3.92,0.49,7.85,0.79,11.78c1.29,17.13,2.62,34.85-3.86,52.3   c-5.11,13.76-13.43,25.86-21.48,37.57c-2.6,3.78-5.17,7.51-7.58,11.24l-29.4,45.58l-0.95,118.22c2.49,1.42,4.98,2.85,7.5,4.34   c7.63,4.53,15.51,9.21,23.39,11.9c22.59,7.74,49.67,5.65,75.84,3.62c11.6-0.9,23.61-1.83,34.83-1.83c2.92,0,6.51,0.3,10.35,0.64   c6.47,0.57,15.36,1.36,19.41-0.18c7.93-2.99,12.69-10.74,14.17-23.02c1.54-12.64,3.56-15.43,10.89-20.97   c1.27-0.96,2.77-2.09,4.59-3.59c7.06-5.84,6.96-13.62,6.2-25.84l-0.21-3.39c-0.45-8.2,5.23-13.7,9.79-18.12   c2.17-2.09,4.41-4.27,5.24-6.04c2.24-4.75,2.63-9.73,1.16-14.8C411.49,347,409.55,344.44,407.49,341.73z"/><polygon class="st0" points="101.27,443.61 174.55,444.2 175.44,333.11 132.42,332.77  "/><path d="M426.07,345.28c-1.42-4.9-4.41-8.84-7.05-12.31c-2.11-2.77-4.5-5.92-4.2-7.55c0.68-3.79,2.07-7.47,3.4-11.02   c3.81-10.15,8.55-22.76-6.13-35.91c-13.55-12.14-31.79-11.48-43.88-11.02c-12.04,0.45-23.04,1.21-33.65,2.31l-2.14,0.23   c-7.61,0.84-23.44,2.59-26.17-3.74c-2.06-4.79-0.28-12.02,1.44-19.01c1.09-4.39,2.21-8.93,2.52-13.34c0.74-10.4,0-21.4-2.18-32.68   c-6.05-31.37-20.68-49.92-41.18-52.23c-7.33-0.84-17.41,0.49-23.94,6.62c-4.13,3.88-6.16,9.06-5.87,14.96   c0.21,4.04,0.51,8.09,0.81,12.14c1.22,16.3,2.38,31.69-3,46.18c-4.48,12.07-12.28,23.42-19.83,34.4c-2.67,3.9-5.33,7.76-7.8,11.6   l-28.22,43.73L127,318.23c-3.3,0.23-6.16,2.14-7.03,5.29l-35.21,125.3c-0.61,2.17-0.17,4.51,1.18,6.31   c1.36,1.8,3.48,2.87,5.74,2.89l89.45,0.72c2.66,1.49,5.32,3.04,8,4.63c8.26,4.9,16.8,9.97,26.08,13.15   c14.03,4.8,29.03,6.28,44.31,6.28c12.39,0,24.96-0.97,37.35-1.93c11.85-0.92,23.05-1.78,33.72-1.78c2.55,0,5.71,0.29,9.08,0.59   c8.75,0.77,18.66,1.65,25.81-1.05c13.19-4.98,21.29-17.03,23.44-34.84c0.96-7.9,0.96-7.9,5.24-11.15c1.4-1.06,3.07-2.32,5.07-3.98   c13.11-10.83,12.18-25.84,11.43-37.91l-0.2-3.28c-0.08-1.61,2.96-4.56,5.4-6.93c2.96-2.86,6.3-6.1,8.26-10.26   C427.84,362.36,428.52,353.71,426.07,345.28z M174.55,444.2l-73.28-0.59l31.15-110.84l43.03,0.35L174.55,444.2z M411,364.11   c-0.83,1.77-3.08,3.94-5.24,6.04c-4.56,4.42-10.23,9.92-9.79,18.12l0.21,3.39c0.76,12.22,0.86,20-6.2,25.84   c-1.81,1.49-3.32,2.63-4.59,3.59c-7.33,5.55-9.35,8.34-10.89,20.97c-1.47,12.28-6.24,20.02-14.17,23.02   c-4.05,1.54-12.93,0.75-19.41,0.18c-3.84-0.34-7.44-0.64-10.35-0.64c-11.23,0-23.23,0.93-34.83,1.83   c-26.17,2.04-53.25,4.13-75.84-3.62c-7.88-2.7-15.76-7.37-23.39-11.9c-2.51-1.49-5-2.92-7.5-4.34l0.95-118.22l29.4-45.58   c2.41-3.73,4.98-7.47,7.58-11.24c8.05-11.71,16.37-23.81,21.48-37.57c6.48-17.45,5.15-35.17,3.86-52.3   c-0.3-3.93-0.59-7.86-0.79-11.78c-0.11-2.05,0.61-3.01,1.32-3.68c2.29-2.16,7.48-3.33,12.4-2.77   c18.45,2.07,25.82,26.31,28.57,40.57c1.94,10.04,2.59,19.77,1.95,28.91c-0.23,3.16-1.15,6.92-2.14,10.89   c-2.19,8.88-4.68,18.95-0.68,28.21c6.97,16.18,29.16,13.75,41.07,12.41l2.04-0.22c10.29-1.08,20.98-1.8,32.69-2.25   c13.37-0.5,25.17-0.28,33.67,7.34c7.3,6.53,5.82,10.48,2.24,20.02c-1.49,3.97-3.18,8.47-4.1,13.55c-1.42,7.9,3.21,13.99,6.93,18.89   c2.06,2.71,4,5.26,4.68,7.58C413.63,354.38,413.24,359.36,411,364.11z"/><path d="M226.7,99.43l-9.64,29.66c-1.18,3.68,0.12,7.68,3.25,9.95c3.13,2.29,7.34,2.27,10.47,0L256,120.72l25.22,18.33   c1.57,1.14,3.4,1.71,5.23,1.71c1.85,0,3.69-0.57,5.26-1.72c3.13-2.29,4.42-6.29,3.23-9.96l-9.63-29.64l25.23-18.33   c3.13-2.28,4.42-6.29,3.22-9.97c-1.2-3.68-4.6-6.15-8.47-6.15h-31.17l-9.63-29.63c-1.2-3.68-4.59-6.16-8.46-6.16   c-0.01,0-0.01,0-0.02,0c-3.86,0-7.27,2.47-8.48,6.16l-9.63,29.63h-31.16c-3.87,0-7.28,2.47-8.48,6.15   c-1.2,3.68,0.09,7.69,3.23,9.98L226.7,99.43z M241.95,79.48c3.86,0,7.26-2.46,8.48-6.16L256,56.15l5.59,17.19   c1.2,3.67,4.61,6.13,8.47,6.13h18.05l-14.59,10.6c-3.13,2.26-4.44,6.26-3.25,9.98l5.58,17.17l-14.61-10.62   c-3.15-2.26-7.36-2.26-10.47,0.01l-14.61,10.61l5.57-17.14c1.22-3.69-0.07-7.7-3.22-10.01l-14.61-10.61H241.95z"/><path d="M336.78,118.51l-5.84,17.99c-1.13,3.46,0.11,7.22,3.05,9.35c2.53,1.84,7.26,1.83,9.81-0.01l15.31-11.12l15.26,11.08   c1.48,1.09,3.21,1.63,4.95,1.63c1.71,0,3.42-0.52,4.88-1.58c2.55-1.84,4.03-6.37,3.06-9.36l-5.84-17.99l15.29-11.11   c2.94-2.13,4.17-5.89,3.05-9.34c-0.96-2.99-4.8-5.78-7.95-5.78h-18.91l-5.84-17.99c0-0.01,0-0.01-0.01-0.01   c-1.12-3.45-4.32-5.76-7.94-5.76c-3.14,0-6.98,2.79-7.95,5.77l-5.84,17.99h-18.92c-3.62,0-6.81,2.31-7.94,5.77   c-0.98,2.99,0.49,7.49,3.03,9.34L336.78,118.51z M349.76,106.77c3.14,0,6.98-2.79,7.95-5.77l1.39-4.27l1.35,4.16   c0.93,3.04,4.79,5.88,7.97,5.88h4.49l-3.69,2.67c-2.5,1.85-3.93,6.34-2.97,9.3l1.39,4.27l-3.63-2.63   c-2.53-1.85-7.27-1.85-9.82-0.01l-3.63,2.64l1.38-4.25c0.98-2.99-0.48-7.51-3.03-9.35l-3.63-2.64H349.76z"/><path d="M130.6,118.51l-5.84,17.99c-1.13,3.46,0.11,7.22,3.05,9.35c2.53,1.84,7.26,1.83,9.81-0.01l15.31-11.12l15.26,11.08   c1.48,1.09,3.21,1.63,4.95,1.63c1.71,0,3.42-0.52,4.88-1.58c2.55-1.84,4.03-6.37,3.06-9.36l-5.84-17.99l15.29-11.11   c2.94-2.13,4.17-5.89,3.05-9.34c-0.96-2.99-4.8-5.78-7.95-5.78h-18.92l-5.84-17.99c0-0.01,0-0.01-0.01-0.01   c-1.12-3.45-4.32-5.76-7.94-5.76c-3.14,0-6.98,2.79-7.95,5.77l-5.84,17.99h-18.92c-3.62,0-6.81,2.31-7.94,5.77   c-0.98,2.99,0.49,7.49,3.03,9.34L130.6,118.51z M143.59,106.77c3.14,0,6.98-2.79,7.95-5.77l1.39-4.26l1.38,4.25   c0.96,2.99,4.8,5.78,7.95,5.78h4.49l-3.63,2.64c-2.54,1.85-4,6.35-3.04,9.33l1.39,4.27l-3.62-2.63c-2.53-1.85-7.27-1.85-9.82-0.01   l-3.63,2.64l1.38-4.25c0.98-2.99-0.48-7.51-3.03-9.35l-3.63-2.64H143.59z"/></g><text x="0" y="527" fill="#000000" font-size="5px" font-weight="bold" font-family="'Helvetica Neue', Helvetica, Arial-Unicode, Arial, Sans-serif">Created by Adeel rehman</text><text x="0" y="532" fill="#000000" font-size="5px" font-weight="bold" font-family="'Helvetica Neue', Helvetica, Arial-Unicode, Arial, Sans-serif">from the Noun Project</text></svg>