<svg width="365" height="328" viewBox="0 0 365 328" fill="none" xmlns="http://www.w3.org/2000/svg">
<path d="M14.4569 159.222C14.0801 161.685 15.0222 164.083 16.9693 165.574C18.9164 167.064 21.4916 167.194 23.5642 166.092L42.6583 155.722L61.7525 166.092C62.6946 166.611 63.6996 166.87 64.7045 166.87C66.0235 166.87 67.2797 166.481 68.4103 165.639C70.3574 164.213 71.2996 161.75 70.9227 159.287L67.2798 137.38L82.7311 121.824C84.427 120.074 85.0551 117.547 84.3013 115.213C83.5476 112.879 81.6005 111.13 79.2139 110.806L57.8586 107.63L48.3115 87.6666C46.176 83.2592 39.1415 83.2592 37.0685 87.6666L27.5214 107.63L6.16618 110.806C3.77941 111.13 1.83241 112.88 1.0787 115.213C0.324981 117.546 0.953079 120.139 2.64892 121.824L18.1003 137.38L14.4569 159.222ZM32.5461 119.815C34.6188 119.491 36.3775 118.194 37.2569 116.25L42.6587 105.037L48.0606 116.25C49.0027 118.13 50.7614 119.491 52.7714 119.815L64.7681 121.63L56.1006 130.38C54.5932 131.87 53.9651 134.009 54.2792 136.083L56.3518 148.463L45.6113 142.63C44.6691 142.111 43.6642 141.852 42.6592 141.852C41.6543 141.852 40.6493 142.111 39.7072 142.63L28.9666 148.463L31.0393 136.083C31.4162 134.009 30.7253 131.806 29.2178 130.38L20.5503 121.63L32.5461 119.815Z" fill="white"/>
<path d="M135.49 47.9979L114.135 44.822L104.588 24.859C102.452 20.4516 95.4179 20.4516 93.3449 24.859L83.7978 44.822L62.4425 47.9979C60.0558 48.322 58.1088 50.072 57.3551 52.4053C56.6013 54.7386 57.2294 57.3312 58.9253 59.0166L74.3767 74.5722L70.7337 96.4794C70.3568 98.9423 71.299 101.341 73.2461 102.831C75.1932 104.257 77.7684 104.451 79.841 103.35L98.9351 92.9792L118.029 103.35C118.971 103.868 119.976 104.127 120.981 104.127C122.3 104.127 123.556 103.738 124.687 102.896C126.634 101.47 127.576 99.0069 127.199 96.5442L123.557 74.637L139.008 59.0814C140.704 57.3314 141.332 54.8038 140.578 52.4701C139.762 50.072 137.814 48.3867 135.49 47.9979ZM112.376 67.7016C110.869 69.1924 110.241 71.3312 110.555 73.4053L112.628 85.785L101.887 79.9519C100.945 79.4334 99.9399 79.1741 98.9349 79.1741C97.93 79.1741 96.925 79.4334 95.9828 79.9519L85.2423 85.785L87.315 73.4053C87.6918 71.3312 87.0009 69.1277 85.4935 67.7016L76.826 58.9515L88.8227 57.1367C90.8954 56.8126 92.6541 55.5163 93.5336 53.5718L98.9354 42.359L104.337 53.5718C105.279 55.4515 107.038 56.8126 109.048 57.1367L121.045 58.9515L112.376 67.7016Z" fill="white"/>
<path d="M359.659 110.61L338.304 107.434L328.757 87.4712C327.689 85.2675 325.491 83.8416 323.104 83.8416C320.718 83.8416 318.519 85.2675 317.452 87.4712L307.905 107.434L286.549 110.61C284.163 110.934 282.216 112.684 281.462 115.017C280.708 117.351 281.336 119.943 283.032 121.629L298.484 137.184L294.841 159.092C294.464 161.554 295.406 163.953 297.353 165.443C298.421 166.286 299.74 166.675 301.059 166.675C302.064 166.675 303.069 166.415 304.011 165.897L323.105 155.527L342.199 165.897C344.335 167.064 346.91 166.869 348.794 165.378C350.741 163.952 351.683 161.489 351.306 159.027L347.663 137.12L363.115 121.564C364.811 119.814 365.439 117.286 364.685 114.953C363.994 112.684 362.046 110.999 359.659 110.61ZM336.608 130.314C335.101 131.805 334.473 133.943 334.787 136.017L336.859 148.397L326.119 142.564C324.297 141.592 322.099 141.592 320.278 142.564L309.537 148.397L311.61 136.017C311.987 133.943 311.296 131.74 309.788 130.314L301.121 121.564L313.118 119.749C315.19 119.425 316.949 118.128 317.828 116.184L323.23 104.971L328.632 116.184C329.574 118.064 331.333 119.425 333.343 119.749L345.34 121.564L336.608 130.314Z" fill="white"/>
<path d="M308.467 52.4074C307.713 50.074 305.766 48.324 303.379 47.9999L282.024 44.824L272.477 24.8611C271.409 22.6574 269.211 21.2314 266.824 21.2314C264.438 21.2314 262.239 22.6574 261.172 24.8611L251.624 44.824L230.269 47.9999C227.882 48.324 225.935 50.074 225.182 52.4074C224.428 54.7407 225.056 57.3333 226.752 59.0187L242.203 74.5742L238.56 96.4814C238.183 98.9444 239.126 101.343 241.073 102.833C242.14 103.676 243.46 104.065 244.779 104.065C245.783 104.065 246.788 103.805 247.731 103.287L266.825 92.9164L285.919 103.287C288.054 104.453 290.63 104.259 292.514 102.768C294.461 101.342 295.403 98.8794 295.026 96.4166L291.383 74.5094L306.835 58.9539C308.593 57.3335 309.22 54.7407 308.467 52.4074ZM280.328 67.6389C278.821 69.1297 278.192 71.2686 278.507 73.3426L280.579 85.7224L269.839 79.8892C268.017 78.917 265.819 78.917 263.997 79.8892L253.257 85.7224L255.33 73.3426C255.706 71.2686 255.016 69.0651 253.508 67.6389L244.841 58.8888L256.837 57.074C258.91 56.7499 260.669 55.4537 261.548 53.5092L266.95 42.2963L272.352 53.5092C273.294 55.3888 275.053 56.7499 277.063 57.074L289.059 58.8888L280.328 67.6389Z" fill="white"/>
<path d="M224.493 31.343C223.739 29.0097 221.792 27.2597 219.406 26.9356L198.05 23.7597L188.566 3.79677C186.43 -0.610641 179.396 -0.610641 177.323 3.79677L167.776 23.7597L146.421 26.9356C144.034 27.2597 142.087 29.0097 141.333 31.343C140.579 33.6764 141.207 36.269 142.903 37.9544L158.355 53.5099L154.712 75.4171C154.335 77.8801 155.277 80.2783 157.224 81.7688C159.171 83.1947 161.746 83.3891 163.819 82.2873L182.913 71.9169L202.007 82.2873C202.949 82.8058 203.954 83.0651 204.897 83.0651C206.215 83.0651 207.472 82.6762 208.602 81.8336C210.549 80.4076 211.492 77.9447 211.115 75.4819L207.472 53.5747L222.923 38.0192C224.619 36.2691 225.247 33.6764 224.493 31.343ZM196.354 46.6393C194.847 48.1301 194.219 50.269 194.533 52.343L196.606 64.7228L185.865 58.8897C184.923 58.3711 183.981 58.1119 182.976 58.1119C181.971 58.1119 180.966 58.3711 180.087 58.8897L169.346 64.7228L171.419 52.343C171.796 50.269 171.105 48.0655 169.597 46.6393L160.93 37.8892L172.926 36.0744C174.999 35.7503 176.758 34.4541 177.637 32.5096L182.913 21.2967L188.315 32.5096C189.257 34.3892 191.016 35.7503 193.026 36.0744L205.023 37.8892L196.354 46.6393Z" fill="white"/>
<path d="M68.4116 209.195C68.4116 274.333 119.789 327.351 182.912 327.351C246.035 327.351 297.413 274.333 297.413 209.195C297.413 144.057 246.035 91.0391 182.912 91.0391C119.789 91.0391 68.4116 143.994 68.4116 209.195ZM182.912 104.002C239.125 104.002 284.851 151.187 284.851 209.195C284.851 267.203 239.125 314.388 182.912 314.388C126.699 314.388 80.9735 267.203 80.9735 209.195C80.9735 151.187 126.699 104.002 182.912 104.002Z" fill="white"/>
<path d="M134.172 247.565C131.722 250.093 131.722 254.177 134.172 256.704C147.613 270.575 165.263 277.51 182.912 277.51C200.561 277.51 218.211 270.574 231.652 256.704C234.102 254.176 234.102 250.093 231.652 247.565C229.203 245.038 225.245 245.037 222.796 247.565C200.813 270.251 165.076 270.251 143.091 247.565C140.579 245.037 136.621 245.037 134.172 247.565Z" fill="white"/>
<path d="M140.202 208.676C156.218 208.676 169.283 195.195 169.283 178.667C169.283 162.139 156.218 148.658 140.202 148.658C124.185 148.658 111.121 162.139 111.121 178.667C111.121 195.195 124.185 208.676 140.202 208.676ZM140.202 161.62C149.309 161.62 156.721 169.268 156.721 178.666C156.721 188.064 149.309 195.713 140.202 195.713C131.094 195.713 123.683 188.064 123.683 178.666C123.683 169.268 131.094 161.62 140.202 161.62Z" fill="white"/>
<path d="M225.623 208.676C241.64 208.676 254.704 195.195 254.704 178.667C254.704 162.139 241.64 148.658 225.623 148.658C209.606 148.658 196.542 162.139 196.542 178.667C196.542 195.195 209.606 208.676 225.623 208.676ZM225.623 161.62C234.73 161.62 242.142 169.268 242.142 178.666C242.142 188.064 234.73 195.713 225.623 195.713C216.516 195.713 209.104 188.064 209.104 178.666C209.104 169.268 216.516 161.62 225.623 161.62Z" fill="white"/>
</svg>
