<svg width="448" height="417" viewBox="0 0 448 417" fill="none" xmlns="http://www.w3.org/2000/svg">
<path d="M421.355 163.012H421.308V159.679C421.308 147.436 410.649 137.463 397.554 137.463H396.032C382.946 59.6995 310.806 0.015625 224.003 0.015625C137.209 0.015625 65.0869 59.6995 52.0011 137.463H50.4513C37.3466 137.463 26.6968 147.436 26.6968 159.679V163.012H26.6408C11.9499 163.012 -0.00683594 174.189 -0.00683594 187.924V211.632C-0.00683594 225.357 11.9499 236.543 26.6408 236.543H26.6968V239.868C26.6968 252.119 37.3564 262.083 50.4513 262.083H62.7629C75.8578 262.083 86.5167 252.119 86.5167 239.868V159.679C86.5167 148.431 77.4818 139.199 65.8611 137.76C78.6949 66.9071 144.61 12.7116 223.993 12.7116C303.386 12.7116 369.301 66.9071 382.134 137.76C370.505 139.199 361.47 148.431 361.47 159.679V239.868C361.47 251.115 370.477 260.329 382.078 261.787C371.802 318.399 327.635 364.261 269.709 380.395C265.183 373.798 257.305 369.383 248.317 369.383H195.712C181.674 369.383 170.25 380.064 170.25 393.187C170.25 406.319 181.665 416.991 195.712 416.991H248.317C262.355 416.991 273.77 406.319 273.77 393.187C273.77 393.004 273.714 392.838 273.714 392.646C337.118 374.951 385.261 324.324 395.762 262.083H397.544C410.649 262.083 421.299 252.119 421.299 239.868V236.543H421.346C436.046 236.543 447.993 225.357 447.993 211.632V187.924C448.003 174.198 436.046 163.012 421.355 163.012ZM26.6408 223.856C19.4357 223.856 13.5648 218.376 13.5648 211.64V187.932C13.5648 181.196 19.4259 175.716 26.6408 175.716L26.6968 223.865H26.6408V223.856ZM72.9458 159.679V239.868C72.9458 245.12 68.3818 249.388 62.7629 249.388H50.4513C44.8324 249.388 40.2684 245.12 40.2684 239.868V159.679C40.2684 154.426 44.8324 150.159 50.4513 150.159H62.7629C68.372 150.168 72.9458 154.434 72.9458 159.679ZM248.327 404.304H195.722C189.169 404.304 183.84 399.321 183.84 393.196C183.84 387.079 189.169 382.097 195.722 382.097H248.327C254.879 382.097 260.199 387.079 260.199 393.196C260.199 399.313 254.869 404.304 248.327 404.304ZM407.728 239.877C407.728 245.13 403.163 249.396 397.544 249.396H385.233C379.614 249.396 375.05 245.13 375.05 239.877V159.687C375.05 154.434 379.614 150.168 385.233 150.168H397.544C403.163 150.168 407.728 154.434 407.728 159.687V239.877ZM434.431 211.64C434.431 218.376 428.57 223.856 421.355 223.856H421.308V175.708H421.355C428.56 175.708 434.431 181.188 434.431 187.924V211.64Z" fill="white"/>
<path d="M194.816 263.235C195.404 263.479 196.001 263.706 196.608 263.933L201.322 291.567C201.779 294.263 204.038 296.384 206.922 296.838C212.475 297.692 218.215 298.12 223.984 298.12C229.752 298.12 235.492 297.684 241.055 296.838C243.939 296.384 246.198 294.263 246.665 291.567L251.369 263.924C251.966 263.706 252.564 263.471 253.152 263.226L277.363 279.666C279.734 281.279 282.935 281.288 285.316 279.692C294.649 273.427 302.76 265.835 309.444 257.118C311.142 254.893 311.142 251.9 309.425 249.693L291.849 227.041C292.101 226.482 292.353 225.941 292.587 225.392L322.156 220.994C325.04 220.558 327.308 218.454 327.793 215.741C328.736 210.374 329.212 205.008 329.212 199.79C329.212 194.581 328.736 189.214 327.793 183.84C327.317 181.135 325.049 179.032 322.156 178.595L292.587 174.198C292.353 173.648 292.101 173.099 291.849 172.549L309.425 149.923C311.142 147.715 311.152 144.722 309.453 142.506C302.789 133.78 294.668 126.18 285.316 119.906C282.935 118.301 279.734 118.31 277.372 119.924L253.152 136.363C252.564 136.119 251.967 135.883 251.379 135.674L246.674 108.013C246.208 105.317 243.958 103.205 241.074 102.752C229.817 101.007 218.169 101.007 206.922 102.752C204.038 103.205 201.788 105.317 201.331 108.013L196.618 135.656C196.029 135.874 195.441 136.118 194.844 136.354L170.595 119.924C168.224 118.31 165.022 118.301 162.642 119.906C153.299 126.198 145.179 133.789 138.524 142.497C136.816 144.722 136.826 147.715 138.543 149.923L156.128 172.54C155.866 173.099 155.614 173.648 155.381 174.206L125.83 178.595C122.946 179.032 120.687 181.126 120.202 183.822C119.259 189.093 118.783 194.459 118.783 199.79C118.783 205.13 119.259 210.514 120.202 215.767C120.687 218.463 122.946 220.558 125.83 220.994L155.381 225.392C155.614 225.941 155.866 226.491 156.128 227.041L138.543 249.693C136.826 251.9 136.816 254.902 138.524 257.118C145.207 265.826 153.327 273.417 162.642 279.692C165.022 281.288 168.224 281.297 170.604 279.666L194.816 263.235ZM152.487 253.331L169.465 231.473C170.959 229.545 171.183 226.988 170.025 224.868C168.765 222.547 167.692 220.139 166.833 217.713C166.04 215.462 163.958 213.813 161.457 213.437L132.924 209.197C132.551 206.082 132.364 202.931 132.364 199.799C132.364 196.684 132.551 193.525 132.924 190.401L161.457 186.17C163.968 185.794 166.04 184.145 166.833 181.894C167.692 179.468 168.765 177.051 170.035 174.73C171.183 172.601 170.968 170.053 169.465 168.124L152.487 146.284C156.678 141.372 161.438 136.93 166.702 132.986L190.093 148.832C192.128 150.211 194.816 150.429 197.075 149.39C199.81 148.125 202.339 147.139 204.822 146.372C207.23 145.63 208.994 143.684 209.395 141.346L213.94 114.671C220.614 113.981 227.362 113.981 234.036 114.671L238.582 141.346C238.983 143.692 240.738 145.63 243.146 146.372C245.629 147.139 248.233 148.16 250.874 149.39C253.133 150.437 255.84 150.237 257.884 148.841L281.255 132.986C286.519 136.921 291.28 141.38 295.471 146.284L278.502 168.124C277.018 170.035 276.784 172.566 277.914 174.678C279.258 177.208 280.313 179.572 281.153 181.92C281.955 184.162 284.027 185.794 286.52 186.17L315.044 190.401C315.436 193.586 315.623 196.736 315.623 199.799C315.623 202.879 315.426 206.02 315.044 209.205L286.52 213.437C284.027 213.803 281.955 215.444 281.153 217.687C280.322 220.025 279.23 222.442 277.914 224.903C276.784 227.023 277.008 229.545 278.492 231.473L295.461 253.331C291.252 258.244 286.501 262.694 281.246 266.629L257.875 250.766C255.821 249.369 253.105 249.152 250.837 250.225C248.326 251.403 245.731 252.415 243.118 253.244C240.719 253.986 238.964 255.931 238.572 258.261L234.027 284.918C227.418 285.59 220.539 285.59 213.922 284.918L209.376 258.261C208.975 255.914 207.22 253.986 204.822 253.244C202.087 252.38 199.511 251.377 197.159 250.251C194.881 249.16 192.147 249.352 190.074 250.766L166.684 266.62C161.438 262.685 156.687 258.235 152.487 253.331Z" fill="#F1F4F4"/>
<path d="M223.993 234.684C244.583 234.684 261.327 219.031 261.327 199.79C261.327 180.541 244.583 164.879 223.993 164.879C203.402 164.879 186.658 180.541 186.658 199.79C186.658 219.031 203.402 234.684 223.993 234.684ZM223.993 177.575C237.098 177.575 247.756 187.539 247.756 199.79C247.756 212.032 237.098 221.989 223.993 221.989C210.897 221.989 200.238 212.032 200.238 199.79C200.229 187.539 210.888 177.575 223.993 177.575Z" fill="white"/>
</svg>
